# xmcd
# 
# Track frame offsets:
#     150
#     34932
#     59915
#     81558
#     97338
#     123427
#     145662
#     170240
#     188461
#     205247
#     228797
#     250754
# 
# Disc length: 3675
# 
# Revision: 1
# Processed by: cddbd v1.5.2PL0 Copyright (c) Steve Scherf et al.
# Submitted via: fre:ac v1.0.31
# 
DISCID=b00e590c
DTITLE=Stanley Clarke - Jazz In The Garden
DYEAR=2009
DGENRE=Jazz
TTITLE0=Paradigm Shift (Election Day 2008)
TTITLE1=Sakura Sakura
TTITLE2=Sicilian Blue
TTITLE3=Take Yje Coltrane
TTITLE4=3 Wrong Notes
TTITLE5=Someday My Prince Will Come
TTITLE6=Isotope
TTITLE7=Bass Folk Song No. 5&6
TTITLE8=Global Tweak
TTITLE9=Solar
TTITLE10=Brain Training
TTITLE11=Under The Bridge
EXTD=YEAR: 2009
EXTT0=
EXTT1=
EXTT2=
EXTT3=
EXTT4=
EXTT5=
EXTT6=
EXTT7=
EXTT8=
EXTT9=
EXTT10=
EXTT11=
PLAYORDER=
